%
M48
M72
T01C0.0130
T02C0.0320
T03C0.0394
T04C0.0400
T05C0.0512
T06C0.0728
T07C0.0866
T08C0.2126
%
T01
X6553Y10240
X11233Y10300
X11533Y10540
X18553Y10480
X19333Y10480
X19633Y10780
X20293Y10120
X21313Y3400
X20473Y2560
X29773Y10540
X30073Y10300
X30793Y9340
X32173Y10000
X32053Y12940
X32053Y13300
X28813Y11560
X32533Y22120
X29953Y24760
X29233Y26440
X28693Y27340
X26353Y25600
X26113Y29020
X22453Y26140
X22213Y25840
X19573Y23200
X16153Y22960
T02
X19933Y1600
X20933Y1600
X30933Y1600
X31933Y1600
X9933Y1600
X8933Y1600
T03
X23433Y28100
X24433Y28100
X25433Y28100
T04
X34433Y21600
X34433Y20600
X34433Y19600
T05
X30910Y22476
X29433Y22476
X27957Y22476
X19910Y22476
X18433Y22476
X16957Y22476
X8910Y22476
X7433Y22476
X5957Y22476
X5957Y14602
X5957Y12633
X8910Y12633
X8910Y14602
X16957Y14602
X16957Y12633
X19910Y12633
X19910Y14602
X27957Y14602
X27957Y12633
X30910Y12633
X30910Y14602
T06
X31433Y7450
X31433Y5600
X31433Y3750
X20433Y3750
X20433Y5600
X20433Y7450
X9433Y7450
X9433Y5600
X9433Y3750
T07
X13264Y9948
X14603Y9948
X14603Y15252
X13264Y15252
X3603Y15252
X2264Y15252
X2264Y9948
X3603Y9948
X24264Y9948
X25603Y9948
X25603Y15252
X24264Y15252
T08
X2878Y5647
X5988Y5647
X13878Y5647
X16988Y5647
X24878Y5647
X27988Y5647
X19988Y28647
X16878Y28647
M30
