G75*
%MOIN*%
%OFA0B0*%
%FSLAX25Y25*%
%IPPOS*%
%LPD*%
%AMOC8*
5,1,8,0,0,1.08239X$1,22.5*
%
%ADD10R,0.12661X0.12661*%
%ADD11C,0.25260*%
%ADD12C,0.07400*%
%ADD13C,0.07677*%
%ADD14R,0.10925X0.10925*%
%ADD15R,0.05937X0.05937*%
%ADD16C,0.00600*%
%ADD17C,0.02900*%
%ADD18C,0.25591*%
%ADD19C,0.01600*%
%ADD20C,0.23622*%
%ADD21C,0.19685*%
%ADD22C,0.39370*%
%ADD23C,0.31496*%
D10*
X0022640Y0099484D03*
X0036026Y0099484D03*
X0036026Y0152516D03*
X0022640Y0152516D03*
X0132640Y0152516D03*
X0146026Y0152516D03*
X0146026Y0099484D03*
X0132640Y0099484D03*
X0242640Y0099484D03*
X0256026Y0099484D03*
X0256026Y0152516D03*
X0242640Y0152516D03*
D11*
X0028782Y0069102D02*
X0028782Y0043843D01*
X0059885Y0043843D02*
X0059885Y0069102D01*
X0138782Y0069102D02*
X0138782Y0043843D01*
X0169885Y0043843D02*
X0169885Y0069102D01*
X0248782Y0069102D02*
X0248782Y0043843D01*
X0279885Y0043843D02*
X0279885Y0069102D01*
X0199885Y0273843D02*
X0199885Y0299102D01*
X0168782Y0299102D02*
X0168782Y0273843D01*
D12*
X0344333Y0216000D03*
X0344333Y0206000D03*
X0344333Y0196000D03*
X0319333Y0016000D03*
X0309333Y0016000D03*
X0209333Y0016000D03*
X0199333Y0016000D03*
X0099333Y0016000D03*
X0089333Y0016000D03*
D13*
X0089097Y0126335D03*
X0089097Y0146020D03*
X0059570Y0146020D03*
X0059570Y0126335D03*
X0059570Y0224760D03*
X0074333Y0224760D03*
X0089097Y0224760D03*
X0169570Y0224760D03*
X0184333Y0224760D03*
X0199097Y0224760D03*
X0279570Y0224760D03*
X0294333Y0224760D03*
X0309097Y0224760D03*
X0309097Y0146020D03*
X0309097Y0126335D03*
X0279570Y0126335D03*
X0279570Y0146020D03*
X0199097Y0146020D03*
X0199097Y0126335D03*
X0169570Y0126335D03*
X0169570Y0146020D03*
D14*
X0204333Y0074504D03*
X0204333Y0056000D03*
X0204333Y0037496D03*
X0094333Y0037496D03*
X0094333Y0056000D03*
X0094333Y0074504D03*
X0314333Y0074504D03*
X0314333Y0056000D03*
X0314333Y0037496D03*
D15*
X0254333Y0281000D03*
X0244333Y0281000D03*
X0234333Y0281000D03*
D16*
X0237733Y0277000D02*
X0199885Y0277000D01*
X0222133Y0258400D02*
X0232933Y0247600D01*
X0299533Y0247600D01*
X0292333Y0260200D02*
X0343933Y0208600D01*
X0343933Y0206200D01*
X0344333Y0206000D01*
X0343933Y0197200D02*
X0311533Y0229600D01*
X0299533Y0229600D01*
X0294733Y0224800D01*
X0294333Y0224760D01*
X0294133Y0224800D01*
X0286333Y0224800D01*
X0281533Y0229600D01*
X0277333Y0229600D01*
X0264133Y0216400D01*
X0256833Y0198500D01*
X0279733Y0224200D02*
X0279570Y0224760D01*
X0279733Y0224200D02*
X0324133Y0179800D01*
X0324133Y0098800D01*
X0314533Y0089200D01*
X0314533Y0074800D01*
X0314333Y0074504D01*
X0307933Y0062200D02*
X0313933Y0056200D01*
X0314333Y0056000D01*
X0307933Y0049600D01*
X0307933Y0031600D01*
X0309133Y0030400D01*
X0309133Y0023200D01*
X0199333Y0023200D01*
X0199333Y0016000D01*
X0199333Y0023200D02*
X0199333Y0029800D01*
X0197533Y0031600D01*
X0195733Y0029800D01*
X0088933Y0029800D01*
X0088933Y0016000D01*
X0089333Y0016000D01*
X0088933Y0029800D02*
X0088933Y0030400D01*
X0087733Y0031600D01*
X0087733Y0049000D01*
X0094333Y0055600D01*
X0094333Y0056000D01*
X0094333Y0056200D01*
X0065533Y0085000D01*
X0065533Y0102400D01*
X0060133Y0121000D02*
X0057733Y0121000D01*
X0048733Y0130000D01*
X0048733Y0206200D01*
X0072133Y0229600D01*
X0084133Y0229600D01*
X0088933Y0224800D01*
X0089097Y0224760D01*
X0089533Y0224800D01*
X0094333Y0229600D01*
X0161533Y0229600D01*
X0184333Y0224760D02*
X0184333Y0191000D01*
X0195733Y0232000D02*
X0067333Y0232000D01*
X0060133Y0224800D01*
X0059570Y0224760D01*
X0059533Y0224200D01*
X0047533Y0212200D01*
X0047533Y0129400D01*
X0094333Y0082600D01*
X0094333Y0074504D01*
X0100933Y0080200D02*
X0060133Y0121000D01*
X0100933Y0080200D02*
X0100933Y0050200D01*
X0094333Y0043600D01*
X0094333Y0037496D01*
X0112333Y0103000D02*
X0116533Y0103000D01*
X0126733Y0113200D01*
X0180733Y0113200D01*
X0189733Y0104200D01*
X0189733Y0103000D01*
X0191533Y0101200D01*
X0202933Y0101200D01*
X0214933Y0113200D01*
X0261733Y0113200D01*
X0271933Y0103000D01*
X0300733Y0103000D01*
X0303733Y0100000D01*
X0321733Y0100000D01*
X0307933Y0093400D02*
X0307933Y0062200D01*
X0325333Y0054400D02*
X0325333Y0208000D01*
X0309133Y0224200D01*
X0309097Y0224760D01*
X0325333Y0225400D02*
X0325333Y0221200D01*
X0325333Y0225400D02*
X0270133Y0280600D01*
X0254533Y0280600D01*
X0254333Y0281000D01*
X0253333Y0290200D02*
X0244333Y0281200D01*
X0244333Y0281000D01*
X0244333Y0280600D01*
X0241333Y0280600D01*
X0237733Y0277000D01*
X0253333Y0290200D02*
X0261133Y0290200D01*
X0286933Y0273400D02*
X0344333Y0216000D01*
X0343933Y0197200D02*
X0343933Y0196000D01*
X0344333Y0196000D01*
X0294333Y0146020D02*
X0288133Y0131800D01*
X0288133Y0115600D01*
X0285733Y0113200D02*
X0256333Y0142600D01*
X0256333Y0152200D01*
X0256026Y0152516D01*
X0262333Y0114400D02*
X0202933Y0114400D01*
X0196333Y0107800D01*
X0196333Y0104200D01*
X0194533Y0102400D01*
X0192133Y0102400D01*
X0190933Y0103600D01*
X0190933Y0104800D01*
X0181333Y0114400D01*
X0126133Y0114400D01*
X0117133Y0105400D01*
X0115333Y0105400D01*
X0185533Y0104800D02*
X0185533Y0074800D01*
X0204333Y0056000D01*
X0204133Y0055600D01*
X0197533Y0049000D01*
X0197533Y0031600D01*
X0204733Y0025600D02*
X0213133Y0034000D01*
X0193333Y0104800D02*
X0193333Y0128800D01*
X0184333Y0146020D01*
X0113533Y0185200D02*
X0074533Y0224200D01*
X0074333Y0224760D01*
X0224533Y0261400D02*
X0229933Y0256000D01*
X0263533Y0256000D01*
X0292333Y0260200D02*
X0292333Y0264400D01*
X0320533Y0133000D02*
X0322933Y0130600D01*
X0322933Y0128200D01*
X0300133Y0105400D01*
X0297733Y0105400D01*
X0271333Y0105400D01*
X0262333Y0114400D01*
X0285733Y0113200D02*
X0303133Y0113200D01*
X0319333Y0129400D01*
X0320533Y0129400D01*
X0325333Y0054400D02*
X0314533Y0043600D01*
X0314533Y0037600D01*
X0314333Y0037496D01*
X0309133Y0023200D02*
X0309133Y0016000D01*
X0309333Y0016000D01*
D17*
X0307933Y0093400D03*
X0300733Y0103000D03*
X0297733Y0105400D03*
X0288133Y0115600D03*
X0320533Y0129400D03*
X0320533Y0133000D03*
X0321733Y0100000D03*
X0213133Y0034000D03*
X0204733Y0025600D03*
X0202933Y0101200D03*
X0196333Y0107800D03*
X0193333Y0104800D03*
X0185533Y0104800D03*
X0115333Y0105400D03*
X0112333Y0103000D03*
X0065533Y0102400D03*
X0161533Y0229600D03*
X0195733Y0232000D03*
X0222133Y0258400D03*
X0224533Y0261400D03*
X0261133Y0290200D03*
X0286933Y0273400D03*
X0292333Y0264400D03*
X0299533Y0247600D03*
X0325333Y0221200D03*
X0263533Y0256000D03*
D18*
X0256026Y0099484D02*
X0242640Y0099484D01*
X0146026Y0099484D02*
X0132640Y0099484D01*
X0036026Y0099484D02*
X0029333Y0099484D01*
X0022640Y0099484D01*
X0029333Y0099484D02*
X0029333Y0057024D01*
X0028782Y0056472D01*
D19*
X0132640Y0099484D02*
X0138782Y0099484D01*
X0242640Y0099484D02*
X0248782Y0099484D01*
D20*
X0248782Y0056472D01*
X0138782Y0056472D02*
X0138782Y0099484D01*
X0104461Y0176128D02*
X0104442Y0176128D01*
X0232070Y0193756D02*
X0246833Y0193756D01*
X0246833Y0208500D01*
X0256833Y0198500D02*
X0249333Y0191000D01*
D21*
X0279570Y0146020D02*
X0294333Y0146020D01*
X0309097Y0146020D01*
X0199097Y0146020D02*
X0184333Y0146020D01*
X0169570Y0146020D01*
X0089097Y0146020D02*
X0074333Y0146020D01*
X0059570Y0146020D01*
D22*
X0074333Y0146020D02*
X0104442Y0176128D01*
X0104461Y0176128D02*
X0113533Y0185200D01*
X0119333Y0191000D01*
X0184333Y0191000D01*
X0249333Y0191000D01*
X0256833Y0198500D02*
X0294333Y0161000D01*
X0232070Y0193756D02*
X0184333Y0146020D01*
D23*
X0246833Y0208500D02*
X0199885Y0255449D01*
X0199885Y0277000D01*
X0199885Y0286472D01*
X0246833Y0208500D02*
X0256833Y0198500D01*
X0294333Y0161000D02*
X0294333Y0146020D01*
M02*
