G75*
%MOIN*%
%OFA0B0*%
%FSLAX25Y25*%
%IPPOS*%
%LPD*%
%AMOC8*
5,1,8,0,0,1.08239X$1,22.5*
%
%ADD10R,0.05118X0.05906*%
%ADD11R,0.05118X0.01181*%
%ADD12R,0.13386X0.07087*%
%ADD13R,0.02362X0.05118*%
%ADD14R,0.05906X0.05118*%
D10*
X0108093Y0016000D03*
X0115573Y0016000D03*
X0218093Y0016000D03*
X0225573Y0016000D03*
X0328093Y0016000D03*
X0335573Y0016000D03*
X0300573Y0113500D03*
X0293093Y0113500D03*
X0190573Y0113500D03*
X0183093Y0113500D03*
X0080573Y0113500D03*
X0073093Y0113500D03*
X0275593Y0301000D03*
X0283073Y0301000D03*
X0325593Y0301000D03*
X0333073Y0301000D03*
X0335593Y0241000D03*
X0343073Y0241000D03*
X0323073Y0241000D03*
X0315593Y0241000D03*
X0325593Y0216000D03*
X0333073Y0216000D03*
X0333073Y0206000D03*
X0325593Y0206000D03*
D11*
X0307995Y0104937D03*
X0307995Y0102969D03*
X0307995Y0101000D03*
X0307995Y0099031D03*
X0307995Y0097063D03*
X0290672Y0097063D03*
X0290672Y0099031D03*
X0290672Y0101000D03*
X0290672Y0102969D03*
X0290672Y0104937D03*
X0197995Y0104937D03*
X0197995Y0102969D03*
X0197995Y0101000D03*
X0197995Y0099031D03*
X0197995Y0097063D03*
X0180672Y0097063D03*
X0180672Y0099031D03*
X0180672Y0101000D03*
X0180672Y0102969D03*
X0180672Y0104937D03*
X0087995Y0104937D03*
X0087995Y0102969D03*
X0087995Y0101000D03*
X0087995Y0099031D03*
X0087995Y0097063D03*
X0070672Y0097063D03*
X0070672Y0099031D03*
X0070672Y0101000D03*
X0070672Y0102969D03*
X0070672Y0104937D03*
D12*
X0059333Y0088264D03*
X0059333Y0108736D03*
X0169333Y0108736D03*
X0169333Y0088264D03*
X0279333Y0088264D03*
X0279333Y0108736D03*
D13*
X0281833Y0252299D03*
X0286833Y0252299D03*
X0291833Y0252299D03*
X0296833Y0252299D03*
X0301833Y0252299D03*
X0306833Y0252299D03*
X0311833Y0252299D03*
X0316833Y0252299D03*
X0321833Y0252299D03*
X0326833Y0252299D03*
X0331833Y0252299D03*
X0336833Y0252299D03*
X0336833Y0289701D03*
X0331833Y0289701D03*
X0326833Y0289701D03*
X0321833Y0289701D03*
X0316833Y0289701D03*
X0311833Y0289701D03*
X0306833Y0289701D03*
X0301833Y0289701D03*
X0296833Y0289701D03*
X0291833Y0289701D03*
X0286833Y0289701D03*
X0281833Y0289701D03*
D14*
X0254333Y0264740D03*
X0254333Y0257260D03*
X0234333Y0257260D03*
X0234333Y0264740D03*
M02*
