G75*
%MOIN*%
%OFA0B0*%
%FSLAX25Y25*%
%IPPOS*%
%LPD*%
%AMOC8*
5,1,8,0,0,1.08239X$1,22.5*
%
%ADD10R,0.13461X0.13461*%
%ADD11C,0.26060*%
%ADD12C,0.08200*%
%ADD13C,0.08477*%
%ADD14R,0.11725X0.11725*%
%ADD15R,0.06737X0.06737*%
%ADD16C,0.03700*%
D10*
X0022640Y0099484D03*
X0036026Y0099484D03*
X0036026Y0152516D03*
X0022640Y0152516D03*
X0132640Y0152516D03*
X0146026Y0152516D03*
X0146026Y0099484D03*
X0132640Y0099484D03*
X0242640Y0099484D03*
X0256026Y0099484D03*
X0256026Y0152516D03*
X0242640Y0152516D03*
D11*
X0028782Y0069102D02*
X0028782Y0043843D01*
X0059885Y0043843D02*
X0059885Y0069102D01*
X0138782Y0069102D02*
X0138782Y0043843D01*
X0169885Y0043843D02*
X0169885Y0069102D01*
X0248782Y0069102D02*
X0248782Y0043843D01*
X0279885Y0043843D02*
X0279885Y0069102D01*
X0199885Y0273843D02*
X0199885Y0299102D01*
X0168782Y0299102D02*
X0168782Y0273843D01*
D12*
X0344333Y0216000D03*
X0344333Y0206000D03*
X0344333Y0196000D03*
X0319333Y0016000D03*
X0309333Y0016000D03*
X0209333Y0016000D03*
X0199333Y0016000D03*
X0099333Y0016000D03*
X0089333Y0016000D03*
D13*
X0089097Y0126335D03*
X0089097Y0146020D03*
X0059570Y0146020D03*
X0059570Y0126335D03*
X0059570Y0224760D03*
X0074333Y0224760D03*
X0089097Y0224760D03*
X0169570Y0224760D03*
X0184333Y0224760D03*
X0199097Y0224760D03*
X0279570Y0224760D03*
X0294333Y0224760D03*
X0309097Y0224760D03*
X0309097Y0146020D03*
X0309097Y0126335D03*
X0279570Y0126335D03*
X0279570Y0146020D03*
X0199097Y0146020D03*
X0199097Y0126335D03*
X0169570Y0126335D03*
X0169570Y0146020D03*
D14*
X0204333Y0074504D03*
X0204333Y0056000D03*
X0204333Y0037496D03*
X0094333Y0037496D03*
X0094333Y0056000D03*
X0094333Y0074504D03*
X0314333Y0074504D03*
X0314333Y0056000D03*
X0314333Y0037496D03*
D15*
X0254333Y0281000D03*
X0244333Y0281000D03*
X0234333Y0281000D03*
D16*
X0224533Y0261400D03*
X0222133Y0258400D03*
X0195733Y0232000D03*
X0161533Y0229600D03*
X0261133Y0290200D03*
X0286933Y0273400D03*
X0292333Y0264400D03*
X0299533Y0247600D03*
X0325333Y0221200D03*
X0263533Y0256000D03*
X0320533Y0133000D03*
X0320533Y0129400D03*
X0297733Y0105400D03*
X0300733Y0103000D03*
X0307933Y0093400D03*
X0321733Y0100000D03*
X0288133Y0115600D03*
X0202933Y0101200D03*
X0196333Y0107800D03*
X0193333Y0104800D03*
X0185533Y0104800D03*
X0115333Y0105400D03*
X0112333Y0103000D03*
X0065533Y0102400D03*
X0204733Y0025600D03*
X0213133Y0034000D03*
M02*
